<?xml version="1.0" encoding="iso-8859-1"?>
<!-- Generator: Adobe Illustrator 18.0.0, SVG Export Plug-In . SVG Version: 6.00 Build 0)  -->
<!DOCTYPE svg PUBLIC "-//W3C//DTD SVG 1.1//EN" "http://www.w3.org/Graphics/SVG/1.1/DTD/svg11.dtd">
<svg version="1.1" id="Capa_1" xmlns="http://www.w3.org/2000/svg" xmlns:xlink="http://www.w3.org/1999/xlink" x="0px" y="0px"
	 viewBox="0 0 297 297" style="enable-background:new 0 0 297 297;" xml:space="preserve">
<path d="M186.649,181.41V34.821C186.649,15.62,171.029,0,151.828,0h-7.169c-18.857,0-34.25,15.069-34.795,33.797H97.549
	c-7.353,0-13.314,5.961-13.314,13.314s5.961,13.314,13.314,13.314h12.29v12.29h-12.29c-7.353,0-13.314,5.961-13.314,13.314
	c0,7.353,5.961,13.314,13.314,13.314h12.29v12.29h-12.29c-7.353,0-13.314,5.961-13.314,13.314c0,7.353,5.961,13.314,13.314,13.314
	h12.29v12.29h-12.29c-7.353,0-13.314,5.961-13.314,13.314s5.961,13.314,13.314,13.314h12.29v5.014
	c-15.643,12.025-25.091,30.85-25.091,50.801c0,35.295,28.714,64.009,64.009,64.009s64.009-28.714,64.009-64.009
	C212.765,212.492,202.932,193.383,186.649,181.41z M144.659,26.628h7.169c4.442,0,8.193,3.752,8.193,8.193V83.98h-23.555V34.821
	C136.466,30.379,140.218,26.628,144.659,26.628z M148.756,270.372c-20.612,0-37.381-16.769-37.381-37.381
	c0-13.203,7.094-25.567,18.515-32.265c4.074-2.389,6.577-6.76,6.577-11.484v-78.635h23.555v78.047c0,4.835,2.621,9.29,6.848,11.639
	c11.885,6.602,19.268,19.132,19.268,32.699C186.137,253.603,169.368,270.372,148.756,270.372z"/>
<g>
</g>
<g>
</g>
<g>
</g>
<g>
</g>
<g>
</g>
<g>
</g>
<g>
</g>
<g>
</g>
<g>
</g>
<g>
</g>
<g>
</g>
<g>
</g>
<g>
</g>
<g>
</g>
<g>
</g>
</svg>
