<?xml version="1.0" encoding="iso-8859-1"?>
<!-- Generator: Adobe Illustrator 18.1.1, SVG Export Plug-In . SVG Version: 6.00 Build 0)  -->
<svg version="1.1" id="Capa_1" xmlns="http://www.w3.org/2000/svg" xmlns:xlink="http://www.w3.org/1999/xlink" x="0px" y="0px"
	 viewBox="0 0 278.067 278.067" style="enable-background:new 0 0 278.067 278.067;" xml:space="preserve">
<g>
	<path style="fill:#010002;" d="M177.101,167.365V38.073C177.101,17.046,160.055,0,139.028,0s-38.073,17.046-38.073,38.073v129.292
		c0,6.005-3.737,14.076-7.381,18.846c-7.364,9.611-11.748,21.604-11.748,34.647c0,31.596,25.607,57.208,57.208,57.208
		s57.208-25.613,57.208-57.208c0-13.043-4.389-25.041-11.748-34.647C180.833,181.442,177.101,173.37,177.101,167.365z
		 M109.798,224.584c0-6.19,1.92-11.928,5.205-16.654c3.432-4.933,7.707-11.248,7.707-15.752s4.868-8.159,10.878-8.159h10.878
		c6.005,0,10.878,3.65,10.878,8.159c0,4.504,4.275,10.818,7.707,15.752c3.28,4.727,5.205,10.465,5.205,16.654
		c0,16.143-13.086,29.23-29.23,29.23C122.885,253.814,109.798,240.722,109.798,224.584z"/>
</g>
<g>
</g>
<g>
</g>
<g>
</g>
<g>
</g>
<g>
</g>
<g>
</g>
<g>
</g>
<g>
</g>
<g>
</g>
<g>
</g>
<g>
</g>
<g>
</g>
<g>
</g>
<g>
</g>
<g>
</g>
</svg>
